/* XPM */
static char *a_cities3d_xpm[] = {
/* columns rows colors chars-per-pixel */
"48 48 192 2",
"   c #230000",
".  c #250000",
"X  c #260000",
"o  c #270000",
"O  c #280000",
"+  c #290000",
"@  c #2D0000",
"#  c #2E0000",
"$  c #300000",
"%  c #310000",
"&  c #320000",
"*  c #330000",
"=  c #340000",
"-  c #350000",
";  c #360000",
":  c #370000",
">  c #380000",
",  c #390000",
"<  c #3A0000",
"1  c #3B0000",
"2  c #3C0000",
"3  c #3D0000",
"4  c #3E0000",
"5  c #3F0000",
"6  c #400000",
"7  c #410000",
"8  c #420000",
"9  c #430000",
"0  c #440000",
"q  c #450000",
"w  c #460000",
"e  c #470000",
"r  c #480000",
"t  c #490000",
"y  c #4A0000",
"u  c #4B0000",
"i  c #4C0000",
"p  c #4D0000",
"a  c #4E0000",
"s  c #4F0000",
"d  c #500000",
"f  c #510000",
"g  c #520000",
"h  c #530000",
"j  c #540000",
"k  c #550000",
"l  c #560000",
"z  c #570000",
"x  c #580000",
"c  c #590000",
"v  c #5A0000",
"b  c #5B0000",
"n  c #5C0000",
"m  c #5D0000",
"M  c #5E0000",
"N  c #5F0000",
"B  c #600000",
"V  c #610000",
"C  c #620000",
"Z  c #630000",
"A  c #640000",
"S  c #650000",
"D  c #660000",
"F  c #670000",
"G  c #680000",
"H  c #690000",
"J  c #6A0000",
"K  c #6B0000",
"L  c #6C0000",
"P  c #6D0000",
"I  c #6E0000",
"U  c #6F0000",
"Y  c #700000",
"T  c #710000",
"R  c #720000",
"E  c #730000",
"W  c #740000",
"Q  c #750000",
"!  c #760000",
"~  c #770000",
"^  c #780000",
"/  c #790000",
"(  c #7A0000",
")  c #7B0000",
"_  c #7C0000",
"`  c #7D0000",
"'  c #7E0000",
"]  c #7F0000",
"[  c #800000",
"{  c #810000",
"}  c #820000",
"|  c #830000",
" . c #840000",
".. c #850000",
"X. c #860000",
"o. c #870000",
"O. c #880000",
"+. c #890000",
"@. c #8A0000",
"#. c #8B0000",
"$. c #8C0000",
"%. c #8D0000",
"&. c #8E0000",
"*. c #900000",
"=. c #910000",
"-. c #920000",
";. c #930000",
":. c #940000",
">. c #960000",
",. c #970000",
"<. c #980000",
"1. c #990000",
"2. c #9A0000",
"3. c #9B0000",
"4. c #9C0000",
"5. c #9D0000",
"6. c #9F0000",
"7. c #A10000",
"8. c #A20000",
"9. c #A30000",
"0. c #A40000",
"q. c #A50000",
"w. c #A70000",
"e. c #A80000",
"r. c #A90000",
"t. c #AB0000",
"y. c #AC0000",
"u. c #AD0000",
"i. c #AE0000",
"p. c #AF0000",
"a. c #B00000",
"s. c #B10000",
"d. c #B20000",
"f. c #B30000",
"g. c #B40000",
"h. c #B50000",
"j. c #B60000",
"k. c #B70000",
"l. c #B80000",
"z. c #BC0000",
"x. c #BD0000",
"c. c #BE0000",
"v. c #C00000",
"b. c #C40000",
"n. c #C50000",
"m. c #C70000",
"M. c #C90000",
"N. c #CA0000",
"B. c #CC0000",
"V. c #CD0000",
"C. c #CE0000",
"Z. c #CF0000",
"A. c #D00000",
"S. c #D50000",
"D. c #D60000",
"F. c #D70000",
"G. c #D80000",
"H. c #D90000",
"J. c #DC0000",
"K. c #DE0000",
"L. c #DF0000",
"P. c #E00000",
"I. c #E10000",
"U. c #E20000",
"Y. c #E30000",
"T. c #E40000",
"R. c #E50000",
"E. c #E60000",
"W. c #E70000",
"Q. c #EA0000",
"!. c #EB0000",
"~. c #EC0000",
"^. c #ED0000",
"/. c #EE0000",
"(. c #EF0000",
"). c #F00000",
"_. c #F10000",
"`. c #F20000",
"'. c #F30000",
"]. c #F40000",
"[. c #F60000",
"{. c #F70000",
"}. c #F80000",
"|. c #F90000",
" X c #FA0000",
".X c #FB0000",
"XX c #FC0000",
"oX c #FD0000",
"OX c #FE0000",
"+X c red",
"@X c gray100",
"#X c None",
/* pixels */
"#X#X#X#X#X#X#X#Xx.>.9 #X#X#X#X#X#X#X#X#X#X#X#X#X#X#X#X#X#X#X#X#X#X#X#X#X#X#X#X#X#X#X#X#X#X#X#X#X",
"#X#X#X#X#X#X#Xj.+X XW a f #X#X#X#X#X#X#X#X#X#X#X#X#X#X#X#X#X#X#X#X#X#X#X#X#X#X#X#X#X#X#X#X#X#X#X",
"#X#X#X#X#X#X=.+X+X+XL.C c f #X#X#X#X#X#X#X#X#X#X#X#X#X#X#X#X#X#X#X#X#X#X#X#X#X#X#X#X#X#X#X#X#X#X",
"#X#X#X#X#XW  X+X+X+X+XC.c N c f #X#X#X#X#X#X#X#X#X#X#X#X#X#X#X#X#X#X#X#X#X#X#X#X#X#X#X#X#X#X#X#X",
"#X#X#X#XJ (.+X+X+X+X+X+Xu.l N N l f #X#X#X#X#X#X#X#X#X#X#X#X#X#X#X#X#X#X#X#X#X#X#X#X#X#X#X#X#X#X",
"#X#X#Xf Y.+X+X+X+X+X+X+X+X| f N N N c q #X#X#X#X#X#X#X#X#X#X#X#X#X#X#X#X#X#X#X#X#X#X#X#X#X#X#X#X",
"#X#Xl C.+X+X+X+X+X+X+X+X+X_.W l N N N c a #X#X#X#X#X#X#X#X#X#X#X#X#X#X#X#X#X#X#X#X#X#X#X#X#X#X#X",
"#X#Xj.+X+X+X+X+X+X+X+X+X+X+XY.N c c c N N , #X#X#X#X#X#X#X#X#X#X#X#X#X#X#X#X#X#X#X#X#X#X#X#X#X#X",
"#X5.+X+X+X+X+X+X+X+X+X+X+X+X+Xv.l N c N N c = #X#X#X#X#X#X#X#X#X#X#X#X#X#X#X#X#X#X#X#X#X#X#X#X#X",
"| +X+X+X+X+X+X+X+X+X+X+X+X+X+X+X5.f N c c N l 4 #X#X#X#X#X#X#X#X#X#X#X#X#X#X#X#X#X#X#X#X#X#X#X#X",
" X+X+X+X+X+X+X+X+X+X+X+X+X+X+X+X Xo.l N N N N l t #X#X#X#X#X#X#X#X#X#X#X#X#X#X#X#X#X#X#X#X#X#X#X",
"+X+X+X+X+X+X+X+X+X+X+X+X+X+X+X+X+X_.I l N c c N l #X#X#X#X#X#X#X=.7.j.' #X#X#X#X#X#X#X#X#X#X#X#X",
"+X+X+X+X+X+X+X+X+X+X+X+X+X+X+X+X+X+XS.N c N c N N c #X#X#XW u.m.S.Q._.S.a.#X#X#X#X#X#X#X#X#X#X#X",
"Q.+X+X+X+X+X+X+X+X+X+X+X+X+X+X+X+X+XQ.W C N c N c c l W ' =.H.'.(.Q.Q._.E.5.#X#X#X#X#X#X#X#X#X#X",
"j.+X+X+X+X+X+X+X+X+X+X+X+X+X+X+X+X(.] R W R F c c N N ) 5.=.5.L.(.Q.Q.Q.(.(.2.#X#X#X#X#X#X#X#X#X",
"| +X+X+X+X+X+X+X+X+X+X+X+X+X+X+X(.$.I W R W W R F N c c ] 2.=.5.H.(.Q.Q.Q.(.E.>.#X#X#X#X#X#X#X#X",
"] H.+X+X+X+X+X+X+X+X+X+X+X+X+X(.| J R W W R W R W R I C c ' 2.=.5.Y.Q.Q.Q.Q.(.E.w.#X#X#X#X#X#X#X",
"c u. X+X+X+X+X+X+X+X+X+X+X+X'.$.I R W R R W R R R R R R J C | >.2.L.Q.Q.Q.Q.Q.(.'.7.#X#X#X#X#X#X",
"#Xo.H.+X+X+X+X+X+X+X+X+X+X_.>.J R W R W W R R R R R R R R R W =.a.(.Q.Q.Q.Q.Q.Q.Q.Q.m.#X#X#X#X#X",
"#XW x.+X+X+X+X+X+X+X+X+X X$.J W W R W R R R R R R R R R R R ' =.C.(.(.Q.Q.Q.Q.Q.Q.(.'.v.o.#X#X#X",
"#XN w.Y.+X+X+X+X+X+X+X X2.J R R R W R W R R R R R R R R R R ' 2.Y.(.Q.Q.Q.Q.Q.Q.Q.Q.Q._.v.W #X#X",
"#X#X=.b.+X+X+X+X+X+X'.>.J W R W W R W R R R R R R R R R R I ] j.(.(.Q.Q.Q.(.Q.Q.Q.Q.Q.(. XA.#X#X",
"#X#X) a.(.+X+X+X+X+X2.J W R W R R R R R R R R R R R R R R I o.H.(.Q.Q.Q.Q.Q.Q.Q.(._._.Y.x.] #X#X",
"#X#XJ u.m.+X+X+X X5.J R R W R W W R R R R R R R R R R R R R 5.Q.Q.Q.(.Q.Q.(.(._.E.b.>.W I t #X#X",
"#X#XN 7.a.(.+X+Xw.J R R W R W R R R R R R R R R R R R R R R j._.Q.Q.Q.(._._.L.u.' I J I R q #X#X",
"#X#X#X| u.C.+X7.I R R R R W R R R R R R R R R R R R R R I ) S.(.(.(._.Y.x.=.R J I I R R N #X#X#X",
"#X#X#XR j.l.7.J R W R W W R W R R R R R R R R R R R R R I o.(._.(.C.5.) J J I R I R I R a #X#X#X",
"#X#X#Xl t.a.| I W R W R R W R R R R R R R R R R R R R R J u.E.j.$.I J I R R R R R I R F , #X#X#X",
"#X#X#X#X>.j.2.I R W R W R R R R R R R R R R R R R R R R R | ) J J R R R R R I R I I R 9 #X#X#X#X",
"#X#X#X#X| j.w.R R R W R R R R R R R R R R R R R R R R R R I I R R R I R R I R I R R F #X#X#X#X#X",
"#X#X#X#XF a.u.) R R R R R R R R R R R R R R R R R I R I R R R R R I R R I R I R R R l #X#X#X#X#X",
"#X#X#X#Xl 5.j.| R R R R R R R R R R R R R R R R R R R R I R I R R R I I R I R I R I q #X#X#X#X#X",
"#X#X#X#X#X) l.=.R R R R R R R R R R R R R R R I R I R R R I R I R I R I R I R R R c #X#X#X#X#X#X",
"#X#X#X#X#XN a.w.R R R R R R R R R R R R R R R R R R I R R R R R I R I R I R R I J = #X#X#X#X#X#X",
"#X#X#X#X#X4 2.a.' R R R R R R R R R R R R R R R R R R R R I R R R I R R R I F a #X#X#X#X#X#X#X#X",
"#X#X#X#X#X#X) j.o.I R R R R R R R R R R R I R I I R I R R R I I I R R J N l #X#X#X#X#X#X#X#X#X#X",
"#X#X#X#X#X#Xf t.2.I R R R R R R R R R R I R I R R R R I R I R R R J c l #X#X#X#X#X#X#X#X#X#X#X#X",
"#X#X#X#X#X#X#X=.t.R R R R R R R R R I R R R R R I R R R R R I J l #X#X#X#X#X#X#X#X#X#X#X#X#X#X#X",
"#X#X#X#X#X#X#XF u.) R R R R R R R R I R R R I R R R R R I C c #X#X#X#X#X#X#X#X#X#X#X#X#X#X#X#X#X",
"#X#X#X#X#X#X#X#X>.o.I R R R R R R R R R R I R R R R J N a #X#X#X#X#X#X#X#X#X#X#X#X#X#X#X#X#X#X#X",
"#X#X#X#X#X#X#X#XW 2.I R R R R R R I R R I R R R J N a #X#X#X#X#X#X#X#X#X#X#X#X#X#X#X#X#X#X#X#X#X",
"#X#X#X#X#X#X#X#Xf >.W R R R R R R R R R W I J l #X#X#X#X#X#X#X#X#X#X#X#X#X#X#X#X#X#X#X#X#X#X#X#X",
"#X#X#X#X#X#X#X#X#X] ' R R R R R R R R I C c #X#X#X#X#X#X#X#X#X#X#X#X#X#X#X#X#X#X#X#X#X#X#X#X#X#X",
"#X#X#X#X#X#X#X#X#Xc | R R R R R W J c a #X#X#X#X#X#X#X#X#X#X#X#X#X#X#X#X#X#X#X#X#X#X#X#X#X#X#X#X",
"#X#X#X#X#X#X#X#X#X#X' R R R R J C #X#X#X#X#X#X#X#X#X#X#X#X#X#X#X#X#X#X#X#X#X#X#X#X#X#X#X#X#X#X#X",
"#X#X#X#X#X#X#X#X#X#Xc W J C C #X#X#X#X#X#X#X#X#X#X#X#X#X#X#X#X#X#X#X#X#X#X#X#X#X#X#X#X#X#X#X#X#X",
"#X#X#X#X#X#X#X#X#X#Xf F a #X#X#X#X#X#X#X#X#X#X#X#X#X#X#X#X#X#X#X#X#X#X#X#X#X#X#X#X#X#X#X#X#X#X#X",
"#X#X#X#X#X#X#X#X#X#X#X#X#X#X#X#X#X#X#X#X#X#X#X#X#X#X#X#X#X#X#X#X#X#X#X#X#X#X#X#X#X#X#X#X#X#X#X#X"
};
