/* XPM */
static char * a_citiesonline_xpm[] = {
"24 24 100 2",
"  	c None",
". 	c #DB0000",
"+ 	c #470000",
"@ 	c #E30000",
"# 	c #FF0000",
"$ 	c #C90000",
"% 	c #520000",
"& 	c #530000",
"* 	c #CF0000",
"= 	c #9E0000",
"- 	c #5A0000",
"; 	c #580000",
"> 	c #4C0000",
", 	c #B00000",
"' 	c #7A0000",
") 	c #5C0000",
"! 	c #5D0000",
"~ 	c #490000",
"{ 	c #AA0000",
"] 	c #FE0000",
"^ 	c #FA0000",
"/ 	c #5E0000",
"( 	c #3E0000",
"_ 	c #E60000",
": 	c #540000",
"< 	c #8E0000",
"[ 	c #900000",
"} 	c #FB0000",
"| 	c #AB0000",
"1 	c #5B0000",
"2 	c #790000",
"3 	c #D40000",
"4 	c #EA0000",
"5 	c #EF0000",
"6 	c #B30000",
"7 	c #CD0000",
"8 	c #E20000",
"9 	c #6C0000",
"0 	c #740000",
"a 	c #690000",
"b 	c #5F0000",
"c 	c #970000",
"d 	c #A50000",
"e 	c #ED0000",
"f 	c #E90000",
"g 	c #F40000",
"h 	c #A80000",
"i 	c #910000",
"j 	c #730000",
"k 	c #720000",
"l 	c #6E0000",
"m 	c #630000",
"n 	c #930000",
"o 	c #BA0000",
"p 	c #F10000",
"q 	c #B60000",
"r 	c #E50000",
"s 	c #710000",
"t 	c #810000",
"u 	c #DA0000",
"v 	c #EB0000",
"w 	c #EE0000",
"x 	c #D10000",
"y 	c #B50000",
"z 	c #700000",
"A 	c #C00000",
"B 	c #8B0000",
"C 	c #F00000",
"D 	c #6D0000",
"E 	c #BB0000",
"F 	c #B80000",
"G 	c #750000",
"H 	c #7D0000",
"I 	c #C40000",
"J 	c #F30000",
"K 	c #E00000",
"L 	c #F20000",
"M 	c #D00000",
"N 	c #960000",
"O 	c #6A0000",
"P 	c #760000",
"Q 	c #7E0000",
"R 	c #EC0000",
"S 	c #AD0000",
"T 	c #3C0000",
"U 	c #A10000",
"V 	c #870000",
"W 	c #6F0000",
"X 	c #990000",
"Y 	c #570000",
"Z 	c #A40000",
"` 	c #560000",
" .	c #890000",
"..	c #650000",
"+.	c #950000",
"@.	c #7C0000",
"#.	c #670000",
"$.	c #680000",
"%.	c #7B0000",
"&.	c #600000",
"        . +                                     ",
"      @ # $ % &                                 ",
"    * # # # = - ; >                             ",
"  , # # # # # ' ) ! ~                           ",
"{ # # # # # ] ^ ) ) / (                         ",
"# # # # # # # ] _ : ! ! >       < [             ",
"} # # # # # # # # | ) 1 -   2 3 4 5 6           ",
"7 ] # # # # # # 8 9 0 a / b c d e f g h         ",
"i # # # # # # @ a j j k j l m n o 4 f p q       ",
"  4 ] # # ] r l j k k k k s k t u v 4 f w x     ",
"  y # # # f l j j j s k k k z < p f v f f 5 A   ",
"  B C ] w D j j k s k k k k l E v v 4 5 4 F G   ",
"  H I J k k j k s k k k k k D K e L M N O l 1   ",
"  ; o P j j j k k k k k k k Q R S 0 a s z k T   ",
"    U V k j s k k k k k k k 0 O W s z W z )     ",
"    Q X s s k k k k k k z s s z z z z W 0 +     ",
"      , l k k k k k k z s z s s W z W k Y       ",
"      Z G k k k k s z s s s s W W k m `         ",
"      t  .k k k k s s s z z s z ..&             ",
"        +.W k k k z s z j 9 !                   ",
"        @.l k k z k s #.                        ",
"        $.%.k k s &.-                           ",
"          W 9 a                                 ",
"          1                                     "};
